<svg viewBox="0 0 400 500" xmlns="http://www.w3.org/2000/svg">
  <defs>
    <linearGradient id="bg6" x1="0" y1="0" x2="1" y2="1">
      <stop offset="0%" stop-color="#F7E3E8"/>
      <stop offset="100%" stop-color="#EBC0CC"/>
    </linearGradient>
    <linearGradient id="glass6" x1="0" y1="0" x2="1" y2="1">
      <stop offset="0%" stop-color="#F5D3DC" stop-opacity="0.95"/>
      <stop offset="55%" stop-color="#E3A6B8"/>
      <stop offset="100%" stop-color="#C77890"/>
    </linearGradient>
    <linearGradient id="shine6" x1="0" y1="0" x2="1" y2="0">
      <stop offset="0%" stop-color="#FFFFFF" stop-opacity="0.7"/>
      <stop offset="35%" stop-color="#FFFFFF" stop-opacity="0"/>
    </linearGradient>
  </defs>
  <rect width="400" height="500" fill="url(#bg6)"/>
  <ellipse cx="200" cy="430" rx="90" ry="16" fill="#A85C74" opacity="0.16"/>
  <path d="M140 400 L152 200 Q200 180 248 200 L260 400 Q200 420 140 400 Z" fill="url(#glass6)"/>
  <path d="M140 400 L152 200 Q200 180 248 200 L260 400 Q200 420 140 400 Z" fill="url(#shine6)"/>
  <rect x="167" y="148" width="66" height="55" rx="12" fill="#D391A5"/>
  <circle cx="200" cy="120" r="30" fill="#A85C74"/>
  <rect x="155" y="268" width="90" height="42" rx="8" fill="#FBF6EF" opacity="0.92"/>
  <text x="200" y="294" font-family="Georgia, serif" font-size="14" fill="#A85C74" text-anchor="middle" letter-spacing="1.5">VELVET PEONY</text>
</svg>
